<?xml version="1.0" encoding="UTF-8" standalone="no"?><!DOCTYPE svg PUBLIC "-//W3C//DTD SVG 1.1//EN" "http://www.w3.org/Graphics/SVG/1.1/DTD/svg11.dtd"><svg width="100%" height="100%" viewBox="0 0 3200 3200" version="1.1" xmlns="http://www.w3.org/2000/svg" xmlns:xlink="http://www.w3.org/1999/xlink" xml:space="preserve" xmlns:serif="http://www.serif.com/" style="fill-rule:evenodd;clip-rule:evenodd;stroke-linejoin:round;stroke-miterlimit:2;"><g><path d="M3012.78,88.843l-1795.28,-0l0,3023.62l1795.28,-0l-0,-3023.62Zm-229.167,229.166l0,2565.29c0,-0 -1336.94,-0 -1336.94,-0c-0,-0 -0,-2565.29 -0,-2565.29c-0,0 1336.94,0 1336.94,0l0,0Z"/><rect x="1412.64" y="2708.84" width="1405" height="318"/><path d="M2549.65,558.185l-869.026,0l0,1929.62l869.026,0l-0,-1929.62Zm-358.185,951.419l50.991,273.815l-254.638,0l50.991,-273.815c-58.96,-28.456 -99.672,-88.815 -99.672,-158.608c0,-97.137 78.863,-176 176,-176c97.137,0 176,78.863 176,176c0,69.793 -40.712,130.152 -99.672,158.608Z"/><path d="M2549.65,558.185l-869.026,0l0,1929.62l869.026,0l-0,-1929.62Zm-639.859,1440.63l-0,259.825c183.606,0 410.692,0 410.692,0l0,-259.825c-24.72,9.035 -51.098,13.771 -78.027,13.771l-254.638,-0c-26.929,-0 -53.307,-4.736 -78.027,-13.771Zm281.674,-489.211l50.991,273.815l-254.638,0l50.991,-273.815c-58.96,-28.456 -99.672,-88.815 -99.672,-158.608c0,-97.137 78.863,-176 176,-176c97.137,0 176,78.863 176,176c0,69.793 -40.712,130.152 -99.672,158.608Zm129.018,-507.775l0,-214.477c0,-0 -410.692,-0 -410.692,-0l-0,214.477c60.201,-35.613 130.412,-56 205.346,-56c74.934,0 145.145,20.387 205.346,56Z"/><g><path id="path3814" d="M682.958,1639.77c-0,286.532 108.929,540.232 276.378,696.092l199.157,-129.205c-151.56,-113.428 -253.464,-324.775 -253.464,-566.887c0,-224.162 87.416,-421.983 220.658,-540.138l-189.063,-133.949c-154.556,157.172 -253.666,400.7 -253.666,674.087Z" style="fill-rule:nonzero;"/><path d="M682.958,1639.77c-0,286.532 108.929,540.232 276.378,696.092l199.157,-129.205c-151.56,-113.428 -253.464,-324.775 -253.464,-566.887c0,-224.162 87.416,-421.983 220.658,-540.138l-189.063,-133.949c-154.556,157.172 -253.666,400.7 -253.666,674.087Z"/><path id="path3824" d="M188.292,1643.43c0,376.581 145.767,714.851 377.319,947.84l188.66,-122.442c-199.312,-172.168 -331.694,-474.874 -331.694,-819.746c0,-342.219 130.302,-643.027 327.05,-815.909l-188.255,-133.445c-229.11,232.915 -373.08,569.384 -373.08,943.702Z" style="fill-rule:nonzero;"/><path d="M188.292,1643.43c0,376.581 145.767,714.851 377.319,947.84l188.66,-122.442c-199.312,-172.168 -331.694,-474.874 -331.694,-819.746c0,-342.219 130.302,-643.027 327.05,-815.909l-188.255,-133.445c-229.11,232.915 -373.08,569.384 -373.08,943.702Z"/></g></g></svg>